<svg id="Camada_1" data-name="Camada 1" xmlns="http://www.w3.org/2000/svg" viewBox="0 0 173 46.62"><defs><style>.cls-1{fill:#fff;}</style></defs><path class="cls-1" d="M82.41,29.47a10.22,10.22,0,0,1-3.77,4.06,10.44,10.44,0,0,1-10.58,0,10.22,10.22,0,0,1-3.77-4.06,13,13,0,0,1-1.39-6.16,13,13,0,0,1,1.39-6.16,10.28,10.28,0,0,1,3.77-4.06,10.5,10.5,0,0,1,10.58,0,10.28,10.28,0,0,1,3.77,4.06,13,13,0,0,1,1.39,6.16,13,13,0,0,1-1.39,6.16M139.34,0H124V21.18L106.31,0H93.38V8.11a24,24,0,0,0-6.51-5A28.73,28.73,0,0,0,73.35,0,28.73,28.73,0,0,0,59.83,3.13a24.92,24.92,0,0,0-4,2.66V0H42.89L28.1,24.84,12.92,0H0V46.62H14.32V26.1L24.44,42.42h6.93l10.12-17,.13,21.25H55.94L56,40.9a24.73,24.73,0,0,0,3.91,2.58,28.73,28.73,0,0,0,13.52,3.13A28.73,28.73,0,0,0,87,43.48a24,24,0,0,0,6.51-5l-.09,8.12h15.33V25.44l17.71,21.18h12.92V12.19h4.29V46.62h15.72V12.19H173V0Z"/></svg>